<?xml version="1.0" encoding="UTF-8"?>
<svg width="24px" height="24px" viewBox="0 0 24 24" version="1.1" xmlns="http://www.w3.org/2000/svg" xmlns:xlink="http://www.w3.org/1999/xlink">
    <title>bilibili-fill</title>
    <g id="Welcome" stroke="none" stroke-width="1" fill="none" fill-rule="evenodd">
        <g id="Desktop-HD" transform="translate(-272.000000, -4625.000000)">
            <rect id="矩形" stroke="#979797" fill="#FFFFFF" x="0.5" y="3449.5" width="1439" height="1713"></rect>
            <rect id="矩形" stroke="#979797" fill="#D8D8D8" x="2.5" y="4562.5" width="1439" height="322"></rect>
            <g id="bilibili-fill" transform="translate(272.000000, 4625.000000)" fill="#000000" fill-rule="nonzero">
                <rect id="矩形" opacity="0" x="0" y="0" width="24" height="24"></rect>
                <path d="M18.9947451,2.56748617 C19.2377639,2.80517238 19.3742957,3.12758169 19.3742957,3.46376507 C19.3742957,3.79994846 19.2377639,4.12235777 18.9947451,4.36004397 L17.8101815,5.51790652 L19.0227269,5.51790652 C20.0536342,5.51790649 21.0423031,5.91862165 21.7711674,6.63187078 C22.5000318,7.34511991 22.9093654,8.31245639 22.9090906,9.3210085 L22.9090906,16.9251847 C22.9090906,19.0250199 21.1691063,20.7272727 19.0227269,20.7272727 L6.06818174,20.7272727 C3.92180241,20.7272727 2.18181818,19.0250199 2.18181818,16.9251847 L2.18181818,9.3210085 C2.18181818,7.22117323 3.92180241,5.51892042 6.06818174,5.51892042 L7.27658173,5.51892042 L6.09409084,4.36105787 C5.75723844,4.04294834 5.62204444,3.57177668 5.7404706,3.12863751 C5.85889676,2.68549835 6.21251328,2.33935419 6.66540781,2.22324539 C7.11830233,2.10713659 7.5999942,2.23913232 7.92534534,2.56850007 L10.6737816,5.25733676 C10.7556544,5.33743409 10.8240544,5.42462864 10.8789816,5.51790652 L14.2088179,5.51790652 C14.2637452,5.42462864 14.3331816,5.33540629 14.4150543,5.25632286 L17.1624542,2.56748617 C17.4054089,2.32973728 17.7349646,2.19616607 18.0785997,2.19616607 C18.4222348,2.19616607 18.7517905,2.32973728 18.9947451,2.56748617 Z M19.0227269,8.06277074 L6.06818174,8.06277074 C5.38992706,8.06252431 4.82629842,8.57413393 4.77583632,9.23584172 L4.77272723,9.33114741 L4.77272723,16.9353236 C4.77272723,17.6034772 5.30127267,18.1509778 5.97179992,18.1986307 L6.06818174,18.2026863 L19.0227269,18.2026863 C19.7009816,18.2029328 20.2646103,17.6913231 20.3150724,17.0296153 L20.3181814,16.9353236 L20.3181814,9.33114741 C20.3181814,8.6315632 19.7378178,8.06378472 19.0227269,8.0637847 L19.0227269,8.06277074 Z M8.65909078,10.5974962 C9.37418168,10.5974962 9.95454529,11.1652747 9.95454529,11.8648589 L9.95454529,13.1322216 C9.95454529,13.8321667 9.37455055,14.3995843 8.65909078,14.3995843 C7.94363101,14.3995843 7.36363627,13.8321667 7.36363627,13.1322216 L7.36363627,11.8648589 C7.36363627,11.1652747 7.94399989,10.5974962 8.65909078,10.5974962 L8.65909078,10.5974962 Z M16.4318179,10.5974962 C17.1469088,10.5974962 17.7272724,11.1652747 17.7272724,11.8648589 L17.7272724,13.1322216 C17.7272724,13.8321667 17.1472777,14.3995843 16.4318179,14.3995843 C15.7163581,14.3995843 15.1363634,13.8321667 15.1363634,13.1322216 L15.1363634,11.8648589 C15.1363634,11.1652747 15.716727,10.5974962 16.4318179,10.5974962 Z" id="形状"></path>
            </g>
        </g>
    </g>
</svg>
