<?xml version="1.0" encoding="UTF-8"?>
<svg width="24px" height="24px" viewBox="0 0 24 24" version="1.1" xmlns="http://www.w3.org/2000/svg" xmlns:xlink="http://www.w3.org/1999/xlink">
    <title>github</title>
    <g id="Welcome" stroke="none" stroke-width="1" fill="none" fill-rule="evenodd">
        <g id="Desktop-HD" transform="translate(-272.000000, -4655.000000)">
            <rect id="矩形" stroke="#979797" fill="#FFFFFF" x="0.5" y="3449.5" width="1439" height="1713"></rect>
            <rect id="矩形" stroke="#979797" fill="#D8D8D8" x="2.5" y="4562.5" width="1439" height="322"></rect>
            <g id="github" transform="translate(272.000000, 4655.000000)" fill="#000000" fill-rule="nonzero">
                <rect id="矩形" opacity="0" x="0" y="0" width="24" height="24"></rect>
                <path d="M10.017,20.004 C10.0211772,20.1262851 10.0097518,20.2486039 9.98299999,20.368 C9.93271187,20.5960924 9.84592865,20.81457 9.726,21.015 C9.37300001,21.608 8.77300001,22.003 8,22.003 C6.18,22.003 5.466,21.11 4.572,18.874 C3.966,17.36 3.67999999,17.003 3,17.003 L3,15.003 C4.81999999,15.003 5.53399999,15.896 6.42799999,18.132 C7.03399999,19.646 7.32,20.002 8,20.002 C8,19.712 7.99599998,19.456 7.98799999,19.108 C7.968,18.292 7.96599998,18.125 8.001,17.908 C8.016,17.431 8.139,17.093 8.385,16.758 C6.153,16.272 4.64800001,15.268 3.78400001,13.641 L3.46000001,12.881 C3.14500001,11.973 3,10.947 3,9.76000001 C3,8.39500001 3.41599999,7.17400001 4.194,6.15400001 C3.951,5.184 3.984,3.99800002 4.51999999,2.65999999 L4.695,2.22199999 L5.145,2.079 C5.205,2.05900001 5.277,2.04199999 5.36299999,2.02900001 C6.237,1.89100001 7.47999998,2.21900002 9.10600001,3.25900001 C10.0845308,3.03549062 11.0852699,2.92377552 12.089,2.92600001 C12.997,2.92600001 13.899,3.01700002 14.762,3.198 C16.343,2.208 17.552,1.89700001 18.402,2.028 C18.487,2.04199999 18.56,2.05900001 18.619,2.07799999 L19.071,2.22100001 L19.246,2.661 C19.715,3.83800001 19.795,4.92199999 19.624,5.871 C20.518,6.945 21,8.26399999 21,9.762 C21,11.025 20.91,11.974 20.65,12.898 L20.375,13.652 C19.656,15.277 18.071,16.292 15.628,16.775 C15.882,17.127 16,17.484 16,18.003 L16,19.003 L15.999,20.003 C15.9993972,20.0245561 16.0020788,20.0460094 16.007,20.067 L16,22.003 C15.148,22.003 14.515,21.588 14.203,20.933 C14.061827,20.6387481 13.9922661,20.3152732 14,19.989 L14,18.003 C14,17.919 13.997,17.914 13.793,17.71 C13.247,17.164 13,16.752 13,16.003 L13,15.098 L13.9,15.008 C16.58,14.738 18.037,13.995 18.52,12.908 L18.745,12.291 C18.925,11.645 19,10.859 19,9.76099999 C19,8.59599998 18.593,7.632 17.823,6.86299999 L17.4,6.43999999 L17.573,5.86699999 C17.726,5.358 17.763,4.75599998 17.6,4.06900001 C17.5719153,4.07600611 17.5439134,4.08333994 17.516,4.09099999 C16.981,4.24099999 16.312,4.56099998 15.506,5.09899999 L15.139,5.34400001 L14.71,5.238 C13.8520461,5.02915846 12.9720032,4.9247352 12.089,4.92700001 C11.088,4.92700001 10.099,5.05400002 9.18400001,5.30299999 L8.73799999,5.42500001 L8.35699999,5.16400001 C7.524,4.59400001 6.831,4.254 6.27700001,4.09600001 C6.23916129,4.0853969 6.20115649,4.07539563 6.16300001,4.06600001 C5.97,4.86100001 6.04600001,5.514 6.243,6.00400001 L6.477,6.59200001 L6.04699999,7.056 C5.35999999,7.79599999 5,8.69500001 5,9.762 C5,10.739 5.11399999,11.548 5.32399999,12.158 L5.586,12.778 C6.24,14.005 7.629,14.743 10.106,15.008 L11,15.104 L11,16.003 C11,16.753 10.753,17.164 10.207,17.71 C10.003,17.914 10,17.92 10,18.003 L9.98299999,18.188 C9.97099999,18.248 9.97099999,18.405 9.987,19.06 C9.99400001,19.36 9.99799999,19.599 10,19.848 C10.010791,19.8993131 10.0164853,19.951567 10.017,20.004 Z" id="路径"></path>
            </g>
        </g>
    </g>
</svg>
