<?xml version="1.0" encoding="UTF-8"?>
<svg width="24px" height="24px" viewBox="0 0 24 24" version="1.1" xmlns="http://www.w3.org/2000/svg" xmlns:xlink="http://www.w3.org/1999/xlink">
    <title>linkedin</title>
    <g id="Welcome" stroke="none" stroke-width="1" fill="none" fill-rule="evenodd">
        <g id="Desktop-HD" transform="translate(-272.000000, -4745.000000)">
            <rect id="矩形" stroke="#979797" fill="#FFFFFF" x="0.5" y="3449.5" width="1439" height="1713"></rect>
            <rect id="矩形" stroke="#979797" fill="#D8D8D8" x="2.5" y="4562.5" width="1439" height="322"></rect>
            <g id="linkedin" transform="translate(272.000000, 4745.000000)" fill="#000000" fill-rule="nonzero">
                <rect id="矩形" opacity="0" x="0" y="0" width="24" height="24"></rect>
                <path d="M20.447,20.452 L16.893,20.452 L16.893,14.883 C16.893,13.555 16.866,11.846 15.041,11.846 C13.188,11.846 12.905,13.291 12.905,14.785 L12.905,20.452 L9.351,20.452 L9.351,9 L12.765,9 L12.765,10.561 L12.811,10.561 C13.288,9.66100001 14.448,8.71099999 16.181,8.71099999 C19.782,8.71099999 20.448,11.081 20.448,14.166 L20.448,20.452 L20.447,20.452 Z M5.337,7.43300024 C4.78943017,7.43326612 4.26424015,7.21572576 3.8772374,6.82834783 C3.49023465,6.44096989 3.27320329,5.91556932 3.27399782,5.36800001 C3.27455242,4.22808448 4.19908431,3.30444815 5.33899984,3.30500023 C6.47891537,3.3055528 7.40255176,4.23008462 7.40199977,5.37000015 C7.40144728,6.50991568 6.47691553,7.43355215 5.337,7.43300024 Z M7.119,20.452 L3.555,20.452 L3.555,9 L7.119,9 L7.119,20.452 L7.119,20.452 Z M22.225,0 L1.77100001,0 C0.792,0 0,0.774 0,1.72900001 L0,22.271 C0,23.227 0.792,24 1.77100001,24 L22.222,24 C23.2,24 24,23.227 24,22.271 L24,1.72900001 C24,0.774 23.2,0 22.222,0 L22.225,0 Z" id="形状"></path>
            </g>
        </g>
    </g>
</svg>
