<?xml version="1.0" encoding="UTF-8"?>
<svg width="24px" height="24px" viewBox="0 0 24 24" version="1.1" xmlns="http://www.w3.org/2000/svg" xmlns:xlink="http://www.w3.org/1999/xlink">
    <title>QQ</title>
    <g id="Welcome" stroke="none" stroke-width="1" fill="none" fill-rule="evenodd">
        <g id="Desktop-HD" transform="translate(-272.000000, -4685.000000)">
            <rect id="矩形" stroke="#979797" fill="#FFFFFF" x="0.5" y="3449.5" width="1439" height="1713"></rect>
            <rect id="矩形" stroke="#979797" fill="#D8D8D8" x="2.5" y="4562.5" width="1439" height="322"></rect>
            <g id="QQ" transform="translate(272.000000, 4685.000000)" fill="#000000" fill-rule="nonzero">
                <rect id="矩形" opacity="0" x="0" y="0.0234146341" width="24" height="23.9765854"></rect>
                <path d="M11.9576113,2.80977174 L12.1667796,2.80977174 C17.6051557,2.80977174 17.9537696,9.51055853 17.9537696,9.51055853 C17.9156241,10.0677945 17.9674152,10.6275331 18.1071597,11.1683416 C18.9430445,12.8253913 19.4766319,14.6180055 19.6828943,16.4621024 C19.7805062,17.4929927 19.6828943,17.8551974 19.473726,17.8551974 C19.2645577,17.8551974 18.4278844,16.6292738 18.4278844,16.6292738 C18.2744943,16.1974144 18.1489933,16.0998978 18.065326,16.0998977 C18.0294585,16.0859101 17.9896371,16.0859101 17.9537696,16.0998977 C17.8545832,17.2633303 17.3629303,18.3586466 16.5593142,19.2064995 L15.9596984,19.6801518 C17.660934,19.6801518 17.9816587,20.7667659 17.9816587,20.7667659 C17.9816587,20.7667659 17.7864349,20.9339373 17.4378211,20.9339373 C15.7148367,20.772366 14.0049519,20.4930935 12.3201697,20.0980803 L11.6647757,20.0980803 C10.0825972,20.58208 8.45758247,20.913297 6.81207084,21.0871777 C6.40767877,21.0871777 6.14273224,21.0871777 6.10089858,20.8364206 C6.05906491,20.5856635 6.40767877,19.7915994 8.05313616,19.7498066 C6.901024,19.0024774 6.15181402,17.7721009 6.01723125,16.4063786 C6.01723125,16.1695525 5.91961938,16.0859668 5.87778572,16.0859668 C5.83595205,16.0859668 5.71045106,16.4063786 5.71045106,16.4063786 C5.71045106,16.6571358 4.91561147,17.4929927 4.91561147,17.4929927 C4.72038771,17.701957 4.59488672,17.7855426 4.49727485,17.7855426 C4.39966298,17.7855426 4.27416199,17.4511999 4.27416199,17.4511999 C4.36023268,15.3846361 4.90311044,13.3627242 5.86384116,11.5305463 C6.03648439,10.765951 6.13916734,9.98725453 6.17062134,9.20407764 C6.35190056,3.14411454 10.9536034,2.80977174 11.9576113,2.80977174 M11.9576113,0.0234180782 C7.77424507,0.0234180782 3.59087883,2.80977176 3.38171053,9.12049194 C3.36235862,9.587802 3.31110955,10.0532482 3.22832044,10.5135869 C2.12090885,12.6707295 1.52904605,15.0549447 1.49919572,17.4790618 C1.50451803,18.3011647 1.81795339,19.0914441 2.37770262,19.6940828 C2.65631339,19.9784377 2.98791288,20.2055984 3.35382141,20.3627683 C3.27719306,20.74439 3.27719306,21.1374155 3.35382141,21.5190372 C3.72909967,23.0879687 5.20490343,24.1402365 6.81207084,23.9848153 C8.58091834,23.8509749 10.329769,23.5239693 12.0273341,23.0096488 C13.7974037,23.4230687 15.5970649,23.6978781 17.409932,23.8315748 C18.3738594,23.8811897 19.3129157,23.5160757 19.9896745,22.8285464 C20.5330549,22.2246697 20.8007603,21.4223371 20.7287359,20.6135254 L20.7287359,20.4045612 C21.0907695,20.23543 21.4172972,19.9990466 21.6909101,19.7080137 C22.4040843,18.7235907 22.6628136,17.4818876 22.4020824,16.294931 C22.1891258,14.2315312 21.6379325,12.2171675 20.7705695,10.3324846 C20.7433818,10.082463 20.7433818,9.83023488 20.7705695,9.5802133 C20.7774669,9.51072896 20.7774669,9.44073338 20.7705695,9.37124905 C20.6501566,7.85565477 20.2581284,6.37400706 19.6131715,4.99693084 C18.4033154,1.97587989 15.4655903,0.00272606422 12.2086133,0.0234180782 L11.9576113,0.0234180782 Z" id="形状"></path>
            </g>
        </g>
    </g>
</svg>
