<?xml version="1.0" encoding="UTF-8"?>
<svg width="24px" height="24px" viewBox="0 0 24 24" version="1.1" xmlns="http://www.w3.org/2000/svg" xmlns:xlink="http://www.w3.org/1999/xlink">
    <title>微信</title>
    <g id="Welcome" stroke="none" stroke-width="1" fill="none" fill-rule="evenodd">
        <g id="Desktop-HD" transform="translate(-272.000000, -4715.000000)">
            <rect id="矩形" stroke="#979797" fill="#FFFFFF" x="0.5" y="3449.5" width="1439" height="1713"></rect>
            <rect id="矩形" stroke="#979797" fill="#D8D8D8" x="2.5" y="4562.5" width="1439" height="322"></rect>
            <g id="微信" transform="translate(272.000000, 4715.000000)" fill="#000000" fill-rule="nonzero">
                <rect id="矩形" opacity="0" x="0" y="0" width="24" height="24"></rect>
                <path d="M16.245,8.139 C16.521,8.139 16.7925,8.16 17.0655,8.19 C16.3305,4.767 12.672,2.2245 8.4945,2.2245 C3.825,2.2245 0,5.406 0,9.4485 C0,11.781 1.272,13.6965 3.399,15.1845 L2.55,17.739 L5.52,16.251 C6.582,16.4595 7.434,16.6755 8.4945,16.6755 C8.7615,16.6755 9.0255,16.6635 9.2865,16.644 C9.1215,16.0755 9.024,15.4815 9.024,14.862 C9.0255,11.151 12.2115,8.139 16.245,8.139 Z M11.679,5.8365 C12.321,5.8365 12.7425,6.258 12.7425,6.897 C12.7425,7.533 12.321,7.959 11.679,7.959 C11.0445,7.959 10.4055,7.533 10.4055,6.897 C10.4055,6.2565 11.043,5.8365 11.679,5.8365 Z M5.7345,7.959 C5.097,7.959 4.455,7.533 4.455,6.897 C4.455,6.258 5.097,5.8365 5.7345,5.8365 C6.372,5.8365 6.795,6.2565 6.795,6.897 C6.795,7.533 6.372,7.959 5.7345,7.959 Z M24,14.76 C24,11.364 20.601,8.5965 16.7835,8.5965 C12.741,8.5965 9.5595,11.3655 9.5595,14.76 C9.5595,18.165 12.7425,20.9235 16.7835,20.9235 C17.6295,20.9235 18.483,20.712 19.332,20.499 L21.6615,21.777 L21.0225,19.653 C22.728,18.372 24,16.6755 24,14.76 Z M14.4405,13.6965 C14.019,13.6965 13.5915,13.2765 13.5915,12.8475 C13.5915,12.4245 14.019,11.9985 14.4405,11.9985 C15.0855,11.9985 15.504,12.4245 15.504,12.8475 C15.504,13.2765 15.0855,13.6965 14.4405,13.6965 Z M19.113,13.6965 C18.6945,13.6965 18.2685,13.2765 18.2685,12.8475 C18.2685,12.4245 18.693,11.9985 19.113,11.9985 C19.752,11.9985 20.1765,12.4245 20.1765,12.8475 C20.1765,13.2765 19.752,13.6965 19.113,13.6965 Z" id="形状"></path>
            </g>
        </g>
    </g>
</svg>
